<svg width="305" height="257" viewBox="0 0 305 257" fill="none" xmlns="http://www.w3.org/2000/svg">
<path opacity="0.1" d="M107.713 22.4619C79.7578 48.1362 63.5837 87.9075 28.3071 104.865C-15.414 125.874 -1.62348 172.66 23.7103 202.965C54.1176 239.467 99.6093 257.855 146.702 256.663C196.143 255.437 259.307 244.064 279.567 192.103C288.25 169.799 288.182 144.84 283.143 121.447C271.123 65.6042 242.759 12.6553 182.114 1.58885C154.601 -3.45066 128.348 3.49569 107.713 22.4619Z" fill="#079B49"/>
<path opacity="0.2" d="M192.772 82.9022H170.878V238.582H192.772V82.9022Z" fill="#079B49"/>
<g opacity="0.1">
<path opacity="0.1" d="M271.633 113.684H192.772V115.386H271.633V113.684Z" fill="#079B49"/>
</g>
<g opacity="0.1">
<path opacity="0.1" d="M271.633 145.249H192.772V146.951H271.633V145.249Z" fill="#079B49"/>
</g>
<g opacity="0.1">
<path opacity="0.1" d="M271.633 176.848H192.772V178.55H271.633V176.848Z" fill="#079B49"/>
</g>
<g opacity="0.1">
<path opacity="0.1" d="M271.633 208.413H192.772V210.116H271.633V208.413Z" fill="#079B49"/>
</g>
<path opacity="0.1" d="M271.633 82.9021H192.772V238.582H236.221C250.215 231.772 262.508 222.51 271.633 210.082V82.9021Z" fill="#079B49"/>
<path opacity="0.2" d="M17.479 194.861C19.4539 197.687 21.531 200.411 23.7103 202.999C25.8895 205.621 28.1709 208.174 30.5204 210.592V119.608H17.479V194.861Z" fill="#079B49"/>
<g opacity="0.1">
<path opacity="0.1" d="M130.017 143.138H30.4866V144.466H130.017V143.138Z" fill="#079B49"/>
</g>
<g opacity="0.1">
<path opacity="0.1" d="M130.017 167.28H30.4866V168.608H130.017V167.28Z" fill="#079B49"/>
</g>
<g opacity="0.1">
<path opacity="0.1" d="M130.017 191.388H30.4866V192.716H130.017V191.388Z" fill="#079B49"/>
</g>
<g opacity="0.1">
<path opacity="0.1" d="M130.017 215.53H30.4866V216.857H130.017V215.53Z" fill="#079B49"/>
</g>
<path opacity="0.1" d="M30.4866 210.592C41.451 222.033 54.0497 231.363 67.7041 238.616H130.017V119.608H30.4866V210.592Z" fill="#079B49"/>
<path d="M66.2054 194.214C73.2539 210.558 72.607 226.46 72.607 226.46C72.607 226.46 60.519 215.87 53.4364 199.526C46.3879 183.182 47.0349 167.28 47.0349 167.28C47.0349 167.28 59.1569 177.87 66.2054 194.214Z" fill="#3F3D56"/>
<path d="M55.6171 182.469C55.7757 181.523 55.1224 180.625 54.158 180.464C53.1936 180.302 52.2833 180.938 52.1247 181.884C51.9662 182.829 52.6195 183.727 53.5839 183.889C54.5483 184.051 55.4586 183.415 55.6171 182.469Z" fill="#079C49"/>
<path d="M56.9207 196.489C57.0077 195.97 56.6422 195.476 56.1043 195.385C55.5664 195.295 55.0598 195.643 54.9728 196.163C54.8858 196.682 55.2514 197.176 55.7893 197.266C56.3271 197.356 56.8337 197.008 56.9207 196.489Z" fill="#079C49"/>
<path d="M52.0404 200.82C65.865 212.227 72.6411 226.698 72.6411 226.698C72.6411 226.698 57.0118 222.714 43.1872 211.307C29.3626 199.9 22.5865 185.429 22.5865 185.429C22.5865 185.429 38.2158 189.413 52.0404 200.82Z" fill="#079C49"/>
<path d="M36.3199 198.025C36.4069 197.505 36.0414 197.011 35.5035 196.921C34.9656 196.831 34.459 197.179 34.372 197.698C34.285 198.218 34.6506 198.712 35.1885 198.802C35.7263 198.892 36.2329 198.544 36.3199 198.025Z" fill="#3F3D56"/>
<path d="M45.5072 203.116C45.5942 202.597 45.2286 202.103 44.6908 202.013C44.1529 201.922 43.6463 202.27 43.5593 202.79C43.4723 203.309 43.8378 203.803 44.3757 203.893C44.9136 203.983 45.4202 203.635 45.5072 203.116Z" fill="#3F3D56"/>
<path d="M53.5757 214.894C53.6627 214.374 53.2972 213.88 52.7593 213.79C52.2214 213.7 51.7148 214.048 51.6279 214.567C51.5409 215.087 51.9064 215.581 52.4443 215.671C52.9822 215.761 53.4888 215.413 53.5757 214.894Z" fill="#3F3D56"/>
<path d="M65.1957 203.143C65.2827 202.624 64.9172 202.13 64.3793 202.039C63.8414 201.949 63.3348 202.297 63.2478 202.817C63.1608 203.336 63.5264 203.83 64.0642 203.92C64.6021 204.01 65.1087 203.662 65.1957 203.143Z" fill="#079C49"/>
<path d="M282.836 200.479C267.343 216.926 248.479 224.144 248.479 224.144C248.479 224.144 254.745 204.735 270.238 188.289C285.731 171.842 304.595 164.624 304.595 164.624C304.595 164.624 298.33 184.033 282.836 200.479Z" fill="#3F3D56"/>
<path d="M291.166 182.21C292.353 181.918 293.075 180.704 292.778 179.499C292.481 178.293 291.279 177.553 290.092 177.846C288.905 178.138 288.183 179.352 288.48 180.557C288.777 181.762 289.979 182.502 291.166 182.21Z" fill="#079C49"/>
<path d="M275.508 190.791C276.165 190.629 276.567 189.965 276.405 189.307C276.243 188.65 275.579 188.248 274.922 188.41C274.264 188.572 273.863 189.236 274.024 189.894C274.186 190.551 274.851 190.953 275.508 190.791Z" fill="#079C49"/>
<path d="M268.025 187.267C261.691 209.094 248.241 224.281 248.241 224.281C248.241 224.281 245.006 204.054 251.34 182.228C257.673 160.401 271.123 145.215 271.123 145.215C271.123 145.215 274.324 165.441 268.025 187.267Z" fill="#079C49"/>
<path d="M263.346 167.536C264.004 167.374 264.405 166.709 264.243 166.052C264.081 165.395 263.417 164.993 262.76 165.155C262.102 165.317 261.701 165.981 261.863 166.639C262.025 167.296 262.689 167.698 263.346 167.536Z" fill="#3F3D56"/>
<path d="M262.021 180.785C262.678 180.623 263.08 179.958 262.918 179.301C262.756 178.644 262.092 178.242 261.434 178.404C260.777 178.566 260.375 179.23 260.537 179.888C260.699 180.545 261.363 180.947 262.021 180.785Z" fill="#3F3D56"/>
<path d="M252.387 196.141C253.045 195.979 253.446 195.314 253.285 194.657C253.123 194 252.458 193.598 251.801 193.76C251.144 193.922 250.742 194.586 250.904 195.243C251.066 195.901 251.73 196.302 252.387 196.141Z" fill="#3F3D56"/>
<path d="M271.927 203.734C272.584 203.572 272.985 202.908 272.824 202.251C272.662 201.593 271.997 201.192 271.34 201.353C270.683 201.515 270.281 202.18 270.443 202.837C270.605 203.494 271.269 203.896 271.927 203.734Z" fill="#079C49"/>
<path opacity="0.25" d="M182.284 67.3068C189.844 67.3068 195.973 61.1783 195.973 53.6184C195.973 46.0585 189.844 39.93 182.284 39.93C174.725 39.93 168.596 46.0585 168.596 53.6184C168.596 61.1783 174.725 67.3068 182.284 67.3068Z" fill="#079C49"/>
<path d="M182.285 64.7531C188.434 64.7531 193.419 59.768 193.419 53.6185C193.419 47.469 188.434 42.4839 182.285 42.4839C176.135 42.4839 171.15 47.469 171.15 53.6185C171.15 59.768 176.135 64.7531 182.285 64.7531Z" fill="white"/>
<path opacity="0.25" d="M189.571 53.1757H184.157C183.953 52.3585 183.204 51.7456 182.319 51.7456C181.91 51.7456 181.535 51.8818 181.229 52.0861L176.7 46.8763L175.985 47.4892L180.582 52.8011C180.446 53.0735 180.378 53.3459 180.378 53.6524C180.378 54.708 181.229 55.5592 182.285 55.5592C183.17 55.5592 183.919 54.9463 184.123 54.1291H189.537V53.1757H189.571ZM182.285 54.6058C181.74 54.6058 181.331 54.1631 181.331 53.6524C181.331 53.1076 181.774 52.699 182.285 52.699C182.795 52.699 183.238 53.1416 183.238 53.6524C183.238 54.1631 182.829 54.6058 182.285 54.6058Z" fill="#079C49"/>
<path opacity="0.2" d="M90.8583 93.2875C90.8583 93.2875 83.5714 94.4112 78.8043 99.2804C78.566 99.4847 78.3957 99.6891 78.1914 99.9274C78.1574 99.9615 78.1574 99.9955 78.1233 100.03C78.1233 100.098 78.1233 100.166 78.1233 100.234C78.4298 107.282 73.4584 113.207 73.4584 113.207C73.4584 113.207 74.3437 112.935 74.582 112.833C76.6932 112.118 82.4818 110.619 86.2955 106.261C91.0626 100.881 90.8583 93.2875 90.8583 93.2875Z" fill="#079B49"/>
<path d="M88.3386 91.6868V91.5847L88.2365 91.6187C88.1684 91.6528 82.0392 93.3213 77.851 97.85L77.885 98.0543C81.7668 93.798 87.3852 92.0273 88.2024 91.789C88.3046 92.6743 89.0196 99.6206 85.24 105.069C81.7668 110.108 75.5696 112.356 73.9352 112.866L73.4925 113.173L73.5606 113.139C73.6287 113.105 81.3242 110.994 85.3762 105.137C89.4282 99.3142 88.3727 91.789 88.3386 91.6868Z" fill="white"/>
<path d="M67.9762 96.5902C63.8901 92.9808 58.9187 91.6188 58.9187 91.6188C58.9187 91.6188 57.795 99.144 61.8811 105.035C65.9672 110.926 73.4924 113.173 73.4924 113.173C73.4924 113.173 67.9421 107.657 67.6357 100.642C67.5335 99.2461 67.7038 97.8841 67.9762 96.5902Z" fill="white"/>
<path opacity="0.2" d="M78.1574 100.234C78.1574 100.166 78.1574 100.098 78.1574 100.029C77.7488 93.0831 72.3007 87.7031 72.3007 87.7031C72.3007 87.7031 69.1 91.4827 67.9763 96.5903C67.7039 97.8843 67.5336 99.2463 67.6358 100.642C67.9422 107.691 73.4925 113.173 73.4925 113.173C73.4584 113.207 78.4639 107.282 78.1574 100.234Z" fill="#079B49"/>
<path d="M73.3902 113.207H73.5604L72.3005 87.9756H72.1643L73.3902 113.207Z" fill="white"/>
<path opacity="0.15" d="M78.1235 100.029L78.8045 99.2802C78.8045 99.2802 80.0984 106.09 74.5822 112.832L73.5266 113.207C73.5607 113.207 78.5321 107.18 78.1235 100.029Z" fill="#079C49"/>
<path opacity="0.05" d="M67.9763 96.5902C67.9763 96.5902 65.4906 104.796 73.5606 113.207L72.1645 112.73C72.1645 112.73 68.8616 110.313 67.2272 104.49C65.6609 98.9397 67.1591 95.9092 67.1591 95.9092L67.9763 96.5902Z" fill="#079C49"/>
<path d="M68.6913 119.609H78.0893C78.498 119.609 78.8725 119.37 78.9406 119.03L79.9962 114.535C80.1324 113.99 80.1664 113.445 80.0643 112.901V112.764C79.9962 112.117 79.3492 111.641 78.5661 111.641H68.2146C67.4655 111.641 66.8186 112.117 66.7164 112.764V112.901C66.6483 113.445 66.6824 113.99 66.7845 114.535L67.8401 119.03C67.9082 119.37 68.2827 119.609 68.6913 119.609Z" fill="white"/>
<path opacity="0.35" d="M68.6913 119.609H78.0893C78.498 119.609 78.8725 119.37 78.9406 119.03L79.9962 114.535C80.1324 113.99 80.1664 113.445 80.0643 112.901V112.764C79.9962 112.117 79.3492 111.641 78.5661 111.641H68.2146C67.4655 111.641 66.8186 112.117 66.7164 112.764V112.901C66.6483 113.445 66.6824 113.99 66.7845 114.535L67.8401 119.03C67.9082 119.37 68.2827 119.609 68.6913 119.609Z" fill="#079C49"/>
<path opacity="0.15" d="M80.0641 112.901V112.764C79.996 112.117 79.349 111.641 78.5658 111.641H77.4762C77.4762 111.641 79.1787 113.548 77.7146 116.578C76.7271 118.621 71.2109 119.302 67.5334 117.668L67.8399 118.996C67.908 119.336 68.2825 119.575 68.6911 119.575H78.0891C78.4977 119.575 78.8723 119.336 78.9404 118.996L79.996 114.501C80.0981 113.99 80.1322 113.445 80.0641 112.901Z" fill="#079C49"/>
<path d="M84.5931 233.951L105.432 252.543C111.255 253.871 117.146 254.892 123.104 255.573L128.655 235.143L78.3959 194.895L84.5931 233.951Z" fill="#29293A"/>
<path d="M174.964 115.829L155.521 161.355C155.521 161.355 128.927 160.674 106.692 163.262C84.4567 165.849 67.7378 169.323 67.7378 169.323L70.5981 209.775L84.1162 219.99L177.654 206.983C177.654 206.983 190.695 129.483 189.503 123.627C188.311 117.804 174.964 115.829 174.964 115.829Z" fill="#29293A"/>
<path opacity="0.15" d="M82.7541 179.572L67.7377 169.357C67.7377 169.357 84.4226 165.883 106.692 163.33C128.961 160.742 155.521 161.423 155.521 161.423L169.754 166.973C122.662 169.425 82.7541 179.572 82.7541 179.572Z" fill="white"/>
<path d="M187.937 121.005L169.754 166.939L155.52 161.389L174.963 115.863C174.963 115.829 184.157 117.191 187.937 121.005Z" fill="#5D4837"/>
<path opacity="0.1" d="M82.7541 179.572L84.5928 233.951L71.3471 219.99L67.7377 169.323L82.7541 179.572Z" fill="white"/>
<path d="M158.108 113.207C158.108 113.207 240.273 122.571 245.312 128.189C250.352 133.842 220.149 188.357 217.629 224.962L139.755 178.142L158.108 113.207Z" fill="#079B49"/>
<path opacity="0.1" d="M231.488 126.317C236.936 125.057 245.346 128.224 245.346 128.224C250.386 133.876 220.183 188.391 217.663 224.996L200.229 214.508C205.677 176.508 226.04 127.577 231.488 126.317Z" fill="white"/>
<path d="M116.907 210.66L84.593 184.748L82.0052 207.391L119.597 242.736L116.907 210.66Z" fill="#079B49"/>
<path d="M107.918 84.8769C107.918 84.8769 113.162 105.341 112.174 110.04C111.187 114.739 109.654 124.614 109.654 129.62C109.654 134.625 106.964 145.862 108.803 148.518C110.642 151.208 109.314 151.514 110.642 151.208C111.97 150.867 113.332 150.356 113.332 146.032C113.332 141.674 114.83 134.659 115.171 129.79C115.511 124.921 124.364 115.897 126.714 114.569C129.063 113.241 129.063 111.062 129.063 111.062C129.063 111.062 124.194 82.5274 107.918 84.8769Z" fill="#29293A"/>
<path d="M53.6068 154L60.3829 163.16C60.3829 163.16 74.2415 167.041 80.1323 166.292C88.645 165.169 77.272 157.031 77.272 157.031L70.1554 156.418L68.1124 152.944L60.2467 146.236L53.6068 154Z" fill="#F3B18D"/>
<path d="M46.1839 142.116L47.4437 145.419C47.4778 145.487 47.5459 145.521 47.614 145.521H47.6821L54.2198 162.683C54.5944 163.671 55.7181 164.386 56.7396 164.249L67.8061 162.921C68.8276 162.785 69.3384 161.9 68.9638 160.912L62.6304 144.33H62.6985C62.7325 144.33 62.7666 144.296 62.7666 144.228L62.0515 142.355C62.0175 142.321 61.9834 142.287 61.9494 142.287H61.8813L61.6088 141.572H61.677C61.711 141.572 61.745 141.538 61.745 141.469L61.03 139.631C60.9959 139.597 60.9619 139.563 60.8938 139.563H60.8257L60.4511 138.609H60.5192C60.5533 138.609 60.5873 138.575 60.5533 138.541L60.1787 137.52C60.1787 137.486 60.1106 137.451 60.0766 137.451H60.0085L59.2253 135.408C58.8507 134.421 57.7271 133.706 56.7055 133.842L45.6391 135.17C44.6175 135.306 44.1068 136.192 44.4813 137.179L46.3201 141.98H46.252C46.2179 142.014 46.1839 142.048 46.1839 142.116Z" fill="#28283D"/>
<path d="M52.8578 135.272L51.0531 135.477C50.985 135.477 50.9509 135.545 50.985 135.613L51.0531 135.749C51.0871 135.817 51.1552 135.885 51.2233 135.851L53.028 135.647C53.0961 135.647 53.1302 135.579 53.0961 135.511L53.028 135.374C52.994 135.306 52.9259 135.272 52.8578 135.272Z" fill="#28283D"/>
<path d="M50.673 135.937C50.7368 135.844 50.6879 135.699 50.5637 135.614C50.4396 135.529 50.2873 135.536 50.2236 135.629C50.1598 135.722 50.2087 135.866 50.3328 135.951C50.457 136.036 50.6093 136.03 50.673 135.937Z" fill="#28283D"/>
<path d="M69.5086 161.355C69.5086 161.355 69.4065 161.627 69.1681 162.036C69.066 162.172 68.8617 162.41 68.8617 162.41L66.8867 162.921L56.6034 163.806C56.6034 163.806 57.3866 162.104 57.5228 161.934C57.6249 161.797 69.5086 161.355 69.5086 161.355Z" fill="#28283D"/>
<path d="M46.6608 141.367L47.9207 144.67C47.9548 144.738 48.0229 144.772 48.091 144.772H48.1591L54.6968 161.934C55.0714 162.921 56.195 163.636 57.2166 163.5L68.2831 162.172C69.3046 162.036 69.8153 161.151 69.4408 160.163L63.1073 143.581H63.1754C63.2095 143.581 63.2436 143.546 63.2436 143.478L62.5285 141.606C62.4944 141.572 62.4604 141.537 62.4263 141.537H62.3582L62.0858 140.822H62.1539C62.188 140.822 62.222 140.788 62.222 140.72L61.507 138.882C61.4729 138.847 61.4389 138.813 61.3708 138.813H61.3027L60.9281 137.86H60.9962C61.0303 137.86 61.0643 137.826 61.0303 137.792L60.6557 136.77C60.6557 136.736 60.5876 136.702 60.5535 136.702H60.4854L59.7023 134.659C59.3277 133.672 58.204 132.957 57.1825 133.093L46.116 134.421C45.0945 134.557 44.5837 135.442 44.9583 136.43L46.797 141.231H46.7289C46.6949 141.265 46.6608 141.299 46.6608 141.367Z" fill="#3F3D56"/>
<path d="M53.3345 134.523L51.5298 134.727C51.4617 134.727 51.4277 134.795 51.4617 134.863L51.5298 134.999C51.5639 135.067 51.632 135.136 51.7001 135.102L53.5048 134.897C53.5729 134.897 53.6069 134.829 53.5729 134.761L53.5048 134.625C53.4707 134.557 53.4026 134.523 53.3345 134.523Z" fill="#E5E7EB"/>
<path d="M51.1483 135.192C51.212 135.099 51.1631 134.955 51.039 134.87C50.9149 134.785 50.7626 134.791 50.6988 134.884C50.635 134.977 50.684 135.122 50.8081 135.207C50.9322 135.292 51.0845 135.285 51.1483 135.192Z" fill="#E5E7EB"/>
<path d="M46.0137 136.668L55.6841 161.968C55.9225 162.581 56.6376 163.057 57.2845 162.955L67.8743 161.695C68.5213 161.627 68.8618 161.048 68.6234 160.436L58.953 135.136C58.7147 134.523 57.9996 134.046 57.3526 134.148L55.7523 134.353L55.8203 134.557C56.0247 135.068 55.7523 135.544 55.2074 135.613L49.8274 136.259C49.2826 136.328 48.7037 135.953 48.4994 135.442L48.4313 135.238L46.7288 135.442C46.1159 135.476 45.7754 136.055 46.0137 136.668Z" fill="#979797"/>
<path d="M59.0889 148.279C59.0889 148.279 59.6677 149.777 59.9061 150.254C59.9742 150.424 60.0763 150.629 60.1785 150.969C60.5871 152.433 56.9096 153.557 55.9562 150.731C55.7519 150.152 55.1049 148.552 55.1049 148.552L59.0889 148.279Z" fill="#FFC29A"/>
<path opacity="0.1" d="M59.0889 148.279C59.0889 148.279 59.2251 148.586 59.3953 149.062C59.157 149.982 57.6587 150.561 56.2286 150.288C56.0583 150.254 55.8881 150.22 55.7178 150.152C55.4454 149.437 55.1049 148.552 55.1049 148.552L59.0889 148.279Z" fill="black"/>
<path d="M64.2989 162.138L60.5873 162.58L57.3525 162.955C57.2504 162.717 55.4457 158.256 55.3095 158.018C54.5604 156.792 52.4833 153.591 53.1302 152.57C53.7091 151.65 55.3776 150.935 55.9905 150.731L56.0245 150.833C57.4547 152.399 60.4511 151.276 59.9404 150.22C59.9404 150.22 60.1106 150.254 60.1787 150.254C60.8598 150.356 63.4136 150.629 64.3329 151.139C65.2182 151.65 66.5803 159.516 67.6359 161.729L64.2989 162.138Z" fill="#7BB9B9"/>
<g opacity="0.1">
<path opacity="0.1" d="M64.2989 162.138L60.5873 162.58L57.3525 162.955C57.2504 162.717 55.4457 158.256 55.3095 158.018C54.5604 156.792 52.4833 153.591 53.1302 152.57C53.7091 151.65 55.3776 150.935 55.9905 150.731L56.0245 150.833C57.4547 152.399 60.4511 151.276 59.9404 150.22C59.9404 150.22 60.1106 150.254 60.1787 150.254C60.8598 150.356 63.4136 150.629 64.3329 151.139C65.2182 151.65 66.5803 159.516 67.6359 161.729L64.2989 162.138Z" fill="black"/>
</g>
<path d="M59.434 148.657C60.1189 147.489 59.4115 145.801 57.854 144.888C56.2965 143.975 54.4788 144.182 53.7939 145.35C53.1091 146.518 53.8165 148.205 55.3739 149.118C56.9314 150.032 58.7492 149.825 59.434 148.657Z" fill="#FFC29A"/>
<path d="M57.1141 144.67C56.9779 144.874 56.1607 144.84 55.9564 144.738C55.7521 144.636 55.4116 144.84 55.2073 144.874C55.003 144.908 53.9133 145.317 53.7771 145.521C53.6409 145.726 53.8793 146.645 53.7771 146.747C53.675 146.883 53.8793 147.7 53.8793 147.7C53.8793 147.7 53.1642 147.19 52.994 146.781C52.8237 146.372 52.5854 146.543 52.4492 146.168C52.313 145.76 52.0746 145.215 52.1087 145.01C52.1427 144.772 51.4957 143.785 51.7341 143.478C51.9724 143.172 52.3811 143.274 52.7897 142.729C53.1983 142.184 54.5263 142.014 54.5263 142.014C54.5263 142.014 55.3775 141.946 55.684 142.116C55.684 142.116 55.8542 142.082 55.9564 142.048C56.0585 142.048 56.6714 142.218 56.8417 142.32C57.012 142.423 57.7951 142.729 57.9313 143.036C58.0335 143.342 58.3399 143.24 58.4421 143.512C58.5442 143.785 59.1572 144.023 59.3274 144.398C59.4977 144.772 59.5658 146.577 59.5658 146.577L59.4977 146.781C59.4977 146.781 58.6123 145.657 58.3399 145.589C57.5908 145.249 57.2163 144.568 57.1141 144.67Z" fill="#2F2E41"/>
<path d="M59.83 147.465C59.9771 147.381 59.9835 147.114 59.8442 146.869C59.7049 146.624 59.4727 146.493 59.3255 146.576C59.1783 146.66 59.172 146.926 59.3113 147.172C59.4505 147.417 59.6828 147.548 59.83 147.465Z" fill="#FFC29A"/>
<path d="M54.1767 148.142C54.3239 148.058 54.3303 147.791 54.191 147.546C54.0517 147.301 53.8194 147.17 53.6723 147.253C53.5251 147.337 53.5187 147.603 53.658 147.849C53.7973 148.094 54.0295 148.225 54.1767 148.142Z" fill="#FFC29A"/>
<path d="M59.804 150.05C59.804 150.05 59.2591 151.071 58.3398 151.582C58.3398 151.582 59.4975 152.161 59.7699 152.672C59.7699 152.672 61.847 151.48 59.804 150.05Z" fill="#7BB9B9"/>
<path d="M55.8882 150.527C55.8882 150.527 57.5567 151.412 58.3399 151.582C58.3399 151.582 57.6929 152.365 57.795 152.876C57.795 152.876 54.8667 151.82 55.8882 150.527Z" fill="#7BB9B9"/>
<path d="M58.34 151.582C58.34 151.582 59.4296 151.923 59.7701 152.672L59.668 153.727C59.668 153.727 59.2594 154.17 58.7146 153.829L57.8292 152.876C57.7952 152.876 57.5228 152.229 58.34 151.582Z" fill="#2F2E41"/>
<path d="M59.6677 153.727L63.6517 162.206L61.4724 162.478L58.7143 153.829L59.6677 153.727Z" fill="#2F2E41"/>
<path d="M68.6232 160.435L65.184 151.446C63.3112 150.356 59.804 150.084 59.804 150.084L64.2987 162.138L65.0138 162.07L67.5676 161.763L66.512 158.563L67.9762 161.729C68.5551 161.559 68.8615 161.014 68.6232 160.435Z" fill="white"/>
<path opacity="0.1" d="M61.2682 150.254C60.485 150.118 59.804 150.084 59.804 150.084L64.2987 162.138L65.1159 162.036C65.1159 162.036 61.779 150.322 61.2682 150.254Z" fill="#00B0D9"/>
<path d="M55.9562 159.788L57.3183 162.955L60.5531 162.581L55.8541 150.527C55.8541 150.527 53.2322 151.48 52.1425 152.74L55.6498 161.968C55.8541 162.478 56.3308 162.853 56.8756 162.955L55.9562 159.788Z" fill="white"/>
<path opacity="0.1" d="M55.8543 150.527C55.8543 150.527 55.2754 150.731 54.6625 151.037C54.2539 151.242 59.7701 162.683 59.7701 162.683L60.1787 162.649L60.5873 162.615L55.8543 150.527Z" fill="#00B0D9"/>
<path d="M76.3187 156.043C76.3187 156.043 70.7004 156.247 70.2236 155.6C69.7469 154.919 67.6698 146.747 67.091 145.079C66.5121 143.41 64.8777 142.287 63.6859 140.754C62.4941 139.222 62.2558 140.141 61.9153 140.55C61.5748 140.959 62.7665 143.24 63.073 143.581C63.3795 143.921 64.5372 147.088 64.5372 147.088L68.2828 156.86L70.6663 158.29L72.505 159.516L76.3187 156.043Z" fill="#F3B18D"/>
<path d="M45.4349 141.231C45.4349 141.231 44.856 142.968 45.0944 144.228C45.3327 145.453 47.6822 146.237 47.6822 146.237L47.0353 144.432C47.0353 144.432 48.4995 142.014 47.546 140.618C46.5926 139.222 45.4349 141.231 45.4349 141.231Z" fill="#F3B18D"/>
<path d="M46.6266 144.194C46.6266 144.194 45.9796 146.135 46.252 147.497C46.5244 148.859 49.1123 149.71 49.1123 149.71L48.3972 147.735C48.3972 147.735 50.0316 145.045 48.9761 143.479C47.8524 141.912 46.6266 144.194 46.6266 144.194Z" fill="#F3B18D"/>
<path d="M48.0226 147.565C48.0226 147.565 47.4437 149.335 47.6821 150.595C47.9204 151.855 50.2699 152.638 50.2699 152.638L49.623 150.834C49.623 150.834 51.1212 148.382 50.1337 146.952C49.1463 145.522 48.0226 147.565 48.0226 147.565Z" fill="#F3B18D"/>
<path d="M49.4869 150.8C49.4869 150.8 48.9761 152.366 49.1804 153.456C49.4188 154.545 52.0066 156.997 52.0066 156.997L50.883 153.66C50.883 153.66 52.2109 151.515 51.3256 150.255C50.4403 148.995 49.4869 150.8 49.4869 150.8Z" fill="#F3B18D"/>
<path d="M115.477 119.2C115.477 119.2 100.12 154.273 97.8046 154.579C95.4892 154.885 96.3064 153.251 94.9784 154.341C93.6504 155.43 93.0715 153.251 91.2669 154.511C89.4622 155.771 77.6806 154.885 75.0587 155.022C72.4368 155.158 68.7593 166.224 74.2755 169.834C74.2755 169.834 88.5428 169.97 93.2759 169.697C97.5662 169.425 107.509 168.574 109.246 167.144C120.687 157.882 124.909 145.624 125.249 137.928C125.556 131.969 115.477 119.2 115.477 119.2Z" fill="#A679CF"/>
<path d="M128.587 109.768C127.974 112.288 127.157 118.893 133.32 119.2C139.449 119.506 141.798 113.513 142.445 108.168C143.092 102.822 136.01 88.1797 136.01 88.1797L124.194 94.8877C124.194 94.9218 129.2 107.248 128.587 109.768Z" fill="#F3B18D"/>
<path d="M88.1001 199.696L67.7378 220.024L82.5158 245.46C91.0966 248.899 100.018 251.521 109.143 253.394C101.039 235.722 88.1001 199.696 88.1001 199.696Z" fill="#91278D"/>
<path opacity="0.1" d="M88.1001 199.696L67.7378 220.024L82.5158 245.46C91.0966 248.899 100.018 251.521 109.143 253.394C101.039 235.722 88.1001 199.696 88.1001 199.696Z" fill="black"/>
<path d="M109.007 238.82C107.475 238.037 95.1487 207.153 82.0051 217.709C82.0051 217.709 75.3993 224.996 84.3547 238.82C86.1253 241.578 87.8959 244.711 89.4623 248.014C97.8047 250.874 106.42 253.053 115.205 254.518C112.242 246.141 109.62 239.127 109.007 238.82Z" fill="#91278D"/>
<path opacity="0.1" d="M138.359 93.4918C137.202 99.1101 133.218 103.673 127.974 105.682C126.748 101.187 124.194 94.9219 124.194 94.9219L136.01 88.2139C135.976 88.2139 137.065 90.4272 138.359 93.4918Z" fill="black"/>
<path d="M125.964 101.528C135.16 101.528 142.615 94.0729 142.615 84.8769C142.615 75.6809 135.16 68.2261 125.964 68.2261C116.768 68.2261 109.314 75.6809 109.314 84.8769C109.314 94.0729 116.768 101.528 125.964 101.528Z" fill="#F3B18D"/>
<path d="M146.77 104.592C146.77 104.592 159.028 109.598 160.628 111.47C162.229 113.343 168.222 118.246 169.958 119.2C171.695 120.119 187.12 134.761 187.903 138.064C188.686 141.367 191.036 152.535 188.686 156.145C186.337 159.754 184.906 160.878 180.991 159.448C177.041 158.018 166.076 142.933 166.076 142.933L151.401 139.324C151.401 139.324 147.553 176.575 145.952 181.376C144.352 186.212 132.196 189.14 125.488 191.66C118.78 194.18 101.993 194.18 99.8818 199.628C97.7706 205.076 94.8423 227.754 94.8423 227.754C94.8423 227.754 90.8583 231.125 85.8188 227.754C80.7793 224.383 69.168 232.044 63.3794 227.549C61.5066 226.085 58.1356 227.141 58.1356 227.141C58.1356 227.141 55.2072 190.23 68.0103 187.914C80.8134 185.599 108.701 177.835 119.461 174.294C130.63 170.582 125.965 158.426 123.785 153.251C116.022 134.829 118.371 132.956 122.151 124.682C127.769 112.322 126.305 108.985 126.305 108.985L128.518 107.963C128.518 107.963 128.757 111.164 134.92 111.777C142.99 112.56 146.77 104.592 146.77 104.592Z" fill="#A679CF"/>
<path opacity="0.1" d="M98.9967 180.321C107.271 178.04 114.898 175.758 119.461 174.26C130.63 170.549 125.965 158.392 123.786 153.217C122.526 150.186 121.538 147.632 120.755 145.385L125.114 148.518C125.114 148.518 146.361 155.702 142.207 163.534C142.207 163.534 138.155 167.382 133.592 165.713C129.063 164.045 127.974 168.846 128.587 169.05C129.983 169.527 135.499 170.004 137.236 170.004C138.972 170.004 133.49 171.74 129.063 170.004C124.637 168.267 133.32 171.876 131.277 171.74C129.234 171.57 126.748 171.672 126.544 170.48C126.373 169.289 125.829 174.396 134.92 174.737C134.92 174.737 131.345 175.929 125.965 174.941C125.965 174.941 95.0468 181.513 98.9967 180.321Z" fill="black"/>
<path d="M128.518 107.929C128.518 107.929 125.147 108.576 123.887 110.313C122.627 112.049 122.934 111.743 120.584 112.833C118.235 113.922 116.566 114.092 116.43 115.659C116.294 117.225 113.979 118.621 113.706 121.413C113.57 122.707 117.962 154.511 127.224 159.55C136.52 164.59 143.841 163.057 150.924 149.539C158.006 136.021 168.698 114.603 166.961 110.824C165.225 107.044 163.625 110.415 161.616 109.768C159.607 109.155 157.053 107.861 155.793 109.257C154.533 110.619 150.753 107.282 149.493 108.44C148.234 109.598 144.999 106.737 144.522 107.997C144.045 109.257 145.986 125.125 140.164 134.659C134.375 144.227 128.518 107.929 128.518 107.929Z" fill="#91278D"/>
<path d="M100.324 195.235C98.2133 195.235 94.1272 197.551 92.5949 203.203C91.0626 208.856 91.5053 216.823 90.8583 230.886C90.5519 237.697 89.939 243.451 89.1558 247.878C92.663 249.104 96.2043 250.159 99.7796 251.147C100.393 246.856 100.733 241.476 101.278 235.517C102.606 221.25 113.945 203.407 115.205 202.386C116.464 201.33 112.787 191.898 112.787 191.898C112.787 191.898 102.47 195.235 100.324 195.235Z" fill="#FFC29A"/>
<path opacity="0.1" d="M100.324 195.235C98.2133 195.235 94.1272 197.551 92.5949 203.203C91.0626 208.856 91.5053 216.823 90.8583 230.886C90.5519 237.697 89.939 243.451 89.1558 247.878C92.663 249.104 96.2043 250.159 99.7796 251.147C100.393 246.856 100.733 241.476 101.278 235.517C102.606 221.25 113.945 203.407 115.205 202.386C116.464 201.33 112.787 191.898 112.787 191.898C112.787 191.898 102.47 195.235 100.324 195.235Z" fill="black"/>
<path d="M102.402 201.364C96.3067 205.587 100.325 218.117 98.8264 222.953C98.0773 225.37 97.158 234.7 97.5666 238.684C97.8049 240.829 96.545 245.324 95.0468 249.819C98.6902 250.908 102.402 251.896 106.147 252.747C107.305 249.751 108.769 246.243 110.574 242.259C118.746 224.315 113.945 218.117 114.354 213.725C114.762 209.332 131.992 208.481 131.992 208.481C135.567 203.646 128.417 190.673 128.417 190.673C128.417 190.673 108.497 197.142 102.402 201.364Z" fill="#FFC29A"/>
<path d="M160.594 130.232C160.594 130.232 159.437 136.498 165.498 141.061C168.528 143.342 151.298 150.016 149.358 147.428C147.417 144.874 147.859 136.294 145.408 134.625C142.99 132.957 161.582 125.738 160.594 130.232Z" fill="#FFC29A"/>
<path d="M183.034 180.56C183.034 180.56 186.541 186.212 186.745 195.44C186.95 204.667 183.613 214.746 181.297 215.155C178.982 215.564 166.349 214.542 162.399 212.635C158.449 210.728 151.707 212.84 148.574 210.967C145.442 209.094 135.295 208.447 133.217 209.298C131.14 210.15 118.337 209.298 116.669 211.409C115 213.521 111.016 206.166 110.369 204.055C109.756 201.943 104.07 199.253 101.278 202.182C98.4857 205.076 102.231 195.269 100.324 195.269C98.4176 195.269 102.061 192.716 106.964 191.898C111.868 191.081 134.477 184.373 138.802 182.466C143.126 180.559 145.203 178.482 147.314 177.291C152.66 174.226 181.467 177.223 183.034 180.56Z" fill="#92D137"/>
<path opacity="0.1" d="M100.869 203.918C102.47 199.423 104.104 192.171 111.221 191.762C118.337 191.353 126.544 189.889 129.881 188.391C133.252 186.927 141.832 181.683 143.297 180.219C144.761 178.755 147.178 152.025 156.576 150.288C165.974 148.552 165.668 162.581 165.668 162.581C165.668 162.581 155.453 189.208 151.911 191.728C148.336 194.248 139.96 196.972 133.865 196.563C127.769 196.155 118.542 197.415 117.078 197.823C115.818 198.198 112.208 200.922 109.62 202.182C109.62 202.182 107.067 208.175 106.283 205.655C106.113 205.11 106.113 204.565 106.215 203.986C106.147 203.952 106.181 203.986 106.113 203.952C105.296 205.655 103.491 208.924 102.844 206.847C102.538 207.153 102.197 207.494 101.925 207.766C101.516 208.175 100.869 208.243 100.427 207.902C99.7797 207.391 99.9159 206.608 100.869 203.918Z" fill="black"/>
<path d="M101.278 202.182C102.878 197.687 104.513 190.434 111.629 190.025C118.746 189.617 126.952 188.153 130.289 186.654C133.66 185.19 142.241 179.946 143.705 178.482C145.169 177.018 147.587 150.288 156.985 148.552C166.383 146.815 166.077 160.844 166.077 160.844C166.077 160.844 155.861 187.472 152.32 189.991C148.745 192.511 140.368 195.235 134.273 194.827C128.178 194.418 118.95 195.678 117.486 196.086C116.226 196.461 112.617 199.185 110.029 200.445C110.029 200.445 107.475 206.438 106.692 203.918C106.522 203.373 106.522 202.829 106.624 202.25C106.556 202.216 106.59 202.25 106.522 202.216C105.705 203.918 103.9 207.187 103.253 205.11C102.946 205.416 102.606 205.757 102.334 206.029C101.925 206.438 101.278 206.506 100.835 206.165C100.222 205.621 100.325 204.872 101.278 202.182Z" fill="#FFC29A"/>
<path d="M147.314 138.371C147.314 138.371 142.275 144.193 142.275 148.143C142.275 152.093 142.105 162.581 142.275 165.339C142.445 168.097 142.479 173.681 144.59 175.826C146.667 178.006 148.983 182.432 157.019 183.215C165.089 183.999 183.034 182.262 183.034 180.525C183.034 178.789 182.863 178.789 183.034 175.792C183.204 172.796 183.034 171.4 182.251 170.446C181.467 169.493 182.182 161.695 180.412 159.142C178.641 156.588 177.211 150.084 172.342 145.658C167.472 141.265 159.266 137.587 156.134 141.537C153.001 145.487 148.915 147.939 148.881 145.658C148.847 143.444 147.314 138.371 147.314 138.371Z" fill="#92D137"/>
<path d="M104.683 77.7263C104.683 77.7263 106.487 85.558 109.688 88.248C109.688 88.248 109.893 79.1224 111.084 77.488C112.242 75.8535 104.683 77.7263 104.683 77.7263Z" fill="#2F2E41"/>
<path d="M166.111 160.844C166.111 160.844 155.895 187.472 152.354 189.991C148.813 192.511 140.402 195.235 134.307 194.827C128.212 194.418 118.984 195.678 117.52 196.086C116.056 196.495 111.493 200.07 108.939 200.922C106.386 201.773 102.197 206.165 102.197 206.165C102.197 206.165 98.6901 206.165 101.278 202.182C103.866 198.198 104.513 190.434 111.629 190.025C118.746 189.617 126.952 188.153 130.289 186.654C133.66 185.19 142.241 179.946 143.705 178.482C145.169 177.018 147.587 150.288 156.985 148.552C166.417 146.815 166.111 160.844 166.111 160.844Z" fill="#FFC29A"/>
<path opacity="0.1" d="M183.034 180.559C183.034 180.559 179.186 183.215 178.028 182.194C176.87 181.172 171.218 183.011 169.958 183.113C168.698 183.215 164.033 184.032 162.944 183.42C161.854 182.841 156.746 182.807 156.746 182.807C156.746 182.807 156.917 187.676 158.074 188.119C159.232 188.561 159.266 190.332 159.402 191.592C159.402 191.592 161.752 184.986 163.012 184.986C164.272 185.02 164.51 187.676 166.485 186.212C169.481 183.998 170.264 185.973 170.877 185.837C171.49 185.701 173.908 186.416 174.01 187.676C174.112 188.936 174.317 184.986 175.372 184.918C176.428 184.85 177.143 185.122 177.994 185.837C178.845 186.552 180.616 183.045 181.229 183.42C181.842 183.794 183.272 181.649 184.872 184.918C184.94 184.952 183.817 182.023 183.034 180.559Z" fill="black"/>
<path d="M145.067 71.495C145.067 71.495 159.198 93.0151 162.399 100.2C165.6 107.384 167.541 117.872 161.854 119.881C156.168 121.89 148.302 119.881 148.302 119.881C148.302 119.881 144.829 105.716 140.947 101.494C134.613 94.6154 137.95 80.212 137.95 80.212L145.067 71.495Z" fill="#29293A"/>
<path opacity="0.1" d="M143.739 178.448C143.739 178.448 148.404 182.126 149.187 183.931C149.971 185.735 149.187 191.728 149.187 191.728C149.187 191.728 141.866 194.622 138.087 194.725C134.307 194.827 135.022 191.081 134.069 189.038C133.115 186.995 131.924 185.837 131.924 185.837L143.739 178.448Z" fill="black"/>
<path d="M147.927 186.314C147.927 186.314 147.417 182.773 146.293 181.717C145.203 180.661 143.33 178.891 142.683 178.652C142.036 178.414 139.959 178.55 138.631 178.891C137.303 179.231 131.481 182.398 132.332 184.373C133.183 186.314 134.239 185.497 135.431 187.472C136.622 189.447 136.827 191.898 137.814 191.592C138.734 191.285 138.529 188.391 137.814 187.063C137.099 185.735 138.87 188.97 139.517 190.809C140.232 192.783 141.594 192.749 141.798 190.059C142.002 187.369 140.504 184.543 140.504 184.543C140.504 184.543 142.241 187.948 142.513 188.834C142.786 189.719 144.045 191.898 144.25 191.966C145.305 192.341 145.816 191.149 145.271 188.425C144.761 185.837 144.08 184.067 144.08 184.067C144.08 184.067 146.293 188.663 147.178 188.629C148.574 188.527 147.927 186.314 147.927 186.314Z" fill="#FFC29A"/>
<path opacity="0.1" d="M156.781 128.972C154.976 133.161 151.401 136.396 147.042 137.826C146.668 136.361 146.191 135.136 145.442 134.625C143.773 133.467 151.741 129.824 156.781 128.972Z" fill="black"/>
<path d="M147.893 135.238C156.356 135.238 163.216 128.377 163.216 119.915C163.216 111.452 156.356 104.592 147.893 104.592C139.431 104.592 132.57 111.452 132.57 119.915C132.57 128.377 139.431 135.238 147.893 135.238Z" fill="#FFC29A"/>
<path d="M171.15 104.15C171.15 104.15 175.951 102.141 180.173 109.427C184.396 116.714 188.652 125.363 188.413 130.369C188.175 135.374 189.469 140.788 184.566 144.397C175.474 151.105 177.211 145.113 175.134 141.333C173.908 139.052 169.175 134.557 168.936 132.582C168.698 130.573 167.506 120.937 170.911 116.953C174.317 112.935 173.67 110.721 171.899 109.938C170.162 109.121 171.15 104.15 171.15 104.15Z" fill="#313144"/>
<path d="M166.859 104.15C166.859 104.15 170.333 101.8 171.15 104.15C171.967 106.499 173.261 110.96 169.958 111.709C166.689 112.458 166.689 112.458 166.689 112.458C166.689 112.458 164.714 105.103 166.859 104.15Z" fill="#92D137"/>
<path d="M134.511 107.452C134.511 107.452 135.09 110.687 137.474 112.117C139.857 113.514 144.284 119.166 145.68 120.46C147.076 121.754 145.476 123.558 148.472 121.549C151.468 119.54 152.081 120.153 153.205 123.15C155.078 128.121 160.56 130.982 160.56 130.982C160.56 130.982 162.501 131.356 165.531 127.134C168.528 122.912 168.732 111.505 168.732 111.505C168.732 111.505 168.698 102.481 162.297 99.8592C155.929 97.2713 141.423 92.1977 134.511 107.452Z" fill="#313144"/>
<path d="M150.413 125.67C151.805 125.67 152.933 124.206 152.933 122.401C152.933 120.596 151.805 119.132 150.413 119.132C149.021 119.132 147.893 120.596 147.893 122.401C147.893 124.206 149.021 125.67 150.413 125.67Z" fill="#FFC29A"/>
<path d="M181.297 142.15C181.297 142.15 185.281 143.308 185.69 150.322C186.098 157.337 178.88 155.055 178.88 155.055L181.297 142.15Z" fill="#F3B18D"/>
<path opacity="0.1" d="M181.297 142.15C181.297 142.15 185.281 143.308 185.69 150.322C186.098 157.337 178.88 155.055 178.88 155.055L181.297 142.15Z" fill="black"/>
<path opacity="0.1" d="M180.855 143.035C180.855 143.035 184.941 145.317 182.66 152.229C182.66 152.229 179.97 153.727 178.88 155.055C177.79 156.383 173.772 159.073 172.989 159.312C172.206 159.55 168.018 160.571 166.724 160.401C165.43 160.231 165.668 158.835 167.575 158.052C169.448 157.269 171.729 156.724 171.729 156.724L174.079 154.476C174.079 154.476 171.9 155.634 170.708 155.872C169.516 156.111 164.715 157.405 161.412 156.826C158.824 156.349 159.607 154.136 161.412 154.306C163.217 154.476 168.563 152.433 168.869 152.433C169.175 152.433 172.955 150.935 172.955 150.935C172.955 150.935 169.005 151.344 167.677 151.173C166.349 151.003 162.399 151.991 159.165 151.786C155.93 151.582 155.93 149.539 157.734 148.994C159.539 148.449 165.123 147.905 165.907 147.734C166.69 147.564 169.925 146.44 171.797 146.645C171.797 146.645 168.46 146.304 166.622 146.066C164.783 145.827 157.224 146.304 157.156 145.453C157.087 144.602 156.713 143.137 159.437 143.103C162.161 143.069 161.889 142.559 161.889 142.559C161.889 142.559 165.192 139.017 166.043 138.609C166.894 138.2 169.278 138.438 172.819 139.869C176.462 141.231 179.22 142.899 180.855 143.035Z" fill="black"/>
<path d="M181.298 142.15C181.298 142.15 185.384 144.432 183.102 151.344C183.102 151.344 180.412 152.842 179.323 154.17C178.233 155.498 174.215 158.188 173.432 158.427C172.649 158.665 168.46 159.686 167.166 159.516C165.873 159.346 166.111 157.95 168.018 157.167C169.891 156.383 172.172 155.839 172.172 155.839L174.521 153.591C174.521 153.591 172.342 154.749 171.15 154.987C169.959 155.226 165.157 156.52 161.855 155.941C159.267 155.464 160.05 153.251 161.855 153.421C163.659 153.591 169.005 151.548 169.312 151.548C169.618 151.548 173.398 150.05 173.398 150.05C173.398 150.05 169.448 150.459 168.12 150.288C166.792 150.118 162.842 151.106 159.607 150.901C156.372 150.697 156.372 148.654 158.177 148.109C159.982 147.564 165.566 147.02 166.349 146.849C167.132 146.679 170.367 145.555 172.24 145.76C172.24 145.76 168.903 145.419 167.064 145.181C165.226 144.942 157.666 145.419 157.598 144.568C157.53 143.717 157.156 142.252 159.88 142.218C162.604 142.184 162.331 141.674 162.331 141.674C162.331 141.674 165.634 138.132 166.485 137.724C167.337 137.315 169.72 137.553 173.262 138.984C176.803 140.414 179.629 142.014 181.298 142.15Z" fill="#F3B18D"/>
<path opacity="0.1" d="M172.58 141.299C172.58 141.299 170.061 140.345 169.209 140.516C168.358 140.686 161.991 141.06 162.433 141.605C162.433 141.605 169.584 141.06 172.58 141.299Z" fill="black"/>
<path d="M106.658 79.3947C111.016 78.7137 120.891 74.3892 125.386 77.2155C129.915 80.0757 133.592 84.1959 137.951 82.5274C142.309 80.8589 146.327 75.1384 146.327 72.3122C146.327 69.4859 142.99 69.6221 142.65 67.6131C142.309 65.6041 131.651 55.2187 118.542 58.8281C102.538 63.1866 102.299 80.0757 106.658 79.3947Z" fill="#29293A"/>
<path d="M136.493 88.44C138.032 88.334 139.166 86.6207 139.028 84.6133C138.89 82.6059 137.53 81.0646 135.992 81.1706C134.454 81.2767 133.319 82.99 133.457 84.9973C133.596 87.0047 134.955 88.5461 136.493 88.44Z" fill="#F3B18D"/>
<g opacity="0.1">
<path opacity="0.1" d="M130.017 132.991C131.004 134.557 131.924 136.089 132.911 137.588C133.898 139.052 134.954 140.516 136.146 141.64C136.759 142.185 137.406 142.661 138.087 142.866C138.257 142.934 138.393 142.968 138.597 142.968C138.802 143.002 139.006 143.002 139.21 143.002C139.619 143.002 139.994 142.968 140.402 142.9C141.968 142.593 143.331 141.367 144.216 139.733C144.114 140.652 143.739 141.572 143.16 142.355C142.581 143.138 141.73 143.819 140.777 144.159C140.3 144.33 139.789 144.466 139.278 144.5C139.04 144.534 138.768 144.534 138.529 144.534C138.291 144.534 137.985 144.5 137.712 144.432C136.623 144.194 135.737 143.581 134.988 142.9C133.524 141.538 132.57 139.903 131.753 138.235C130.97 136.6 130.357 134.83 130.017 132.991Z" fill="black"/>
</g>
<g opacity="0.1">
<path opacity="0.1" d="M125.965 138.404C127.259 140.788 128.416 143.171 129.642 145.487C130.868 147.802 132.094 150.118 133.626 152.025C134.375 152.978 135.261 153.795 136.078 154.102C136.18 154.136 136.282 154.17 136.384 154.17C136.486 154.204 136.623 154.204 136.759 154.204C137.031 154.238 137.27 154.238 137.508 154.204C138.019 154.136 138.495 154 138.972 153.727C139.925 153.216 140.777 152.263 141.492 151.207C142.207 150.152 142.786 148.96 143.331 147.7C143.331 149.062 143.058 150.424 142.615 151.752C142.139 153.08 141.39 154.374 140.13 155.362C139.517 155.838 138.734 156.247 137.916 156.383C137.508 156.451 137.099 156.519 136.691 156.519C136.486 156.519 136.282 156.519 136.078 156.485C135.839 156.451 135.635 156.417 135.397 156.349C134.511 156.111 133.796 155.668 133.183 155.191C132.57 154.715 132.06 154.136 131.617 153.591C129.812 151.31 128.689 148.79 127.769 146.236C126.85 143.75 126.203 141.094 125.965 138.404Z" fill="black"/>
</g>
<path d="M262.406 148.279C260.976 140.312 244.495 137.349 244.495 137.349L221.783 199.764C221.783 199.764 190.014 198.845 163.42 202.386C136.827 205.927 116.873 210.626 116.873 210.626L119.631 255.165C128.518 256.391 137.576 256.901 146.667 256.663C182.08 255.778 224.507 249.683 253.178 227.243C257.639 195.644 263.257 153.217 262.406 148.279Z" fill="#29293A"/>
<path opacity="0.15" d="M134.852 224.621L116.907 210.661C116.907 210.661 136.827 205.927 163.454 202.42C190.048 198.879 221.817 199.798 221.817 199.798L238.809 207.392C182.523 210.797 134.852 224.621 134.852 224.621Z" fill="white"/>
<path opacity="0.1" d="M260.533 144.67L238.774 207.392L221.783 199.798L244.495 137.383C244.495 137.383 256.004 139.46 260.533 144.67Z" fill="white"/>
<path opacity="0.1" d="M134.852 224.621L116.907 210.66L119.665 255.199C124.977 255.948 130.357 256.424 135.771 256.629L134.852 224.621Z" fill="white"/>
</svg>
